M48
;FILE_FORMAT=2:4
INCH
;TYPE=PLATED
T01C0.018
T02C0.031
T03C0.039
T04C0.043
T05C0.047
T06C0.047
T07C0.079
T08C0.136
%
T01
X+010875Y+193000
X+011625Y+193750
X+011125Y+192750
X+011375Y+192500
X+011625Y+197375
X+011125
X+011625Y+196875
X+011125
X+011625Y+196375
X+011125
X+011625Y+195875
X+011125
X+011625Y+195375
X+011125
X+013500Y+193875
X+013125
X+013500Y+194625
X+013125
X+013500Y+194250
X+013125
X+012375Y+193000
X+014625Y+196875
Y+197375
X+014125Y+196875
Y+197375
X+013625Y+196875
Y+197375
X+013125Y+196875
Y+197375
X+014625Y+196375
X+014125
X+013625
X+013125
X+012625Y+197375
Y+196875
Y+196375
Y+195875
X+014625Y+198375
Y+198875
Y+199375
Y+199875
X+014125Y+198375
Y+198875
Y+199375
Y+199875
X+013625Y+198375
Y+198875
Y+199375
Y+199875
X+013125Y+198375
Y+198875
Y+199375
Y+199875
X+016375Y+183625
X+016000
X+015625
Y+196875
Y+197375
Y+196375
Y+198375
Y+198875
Y+199375
Y+199875
X+016250Y+198500
X+017250
X+016750
X+020125Y+181000
X+018625Y+187625
Y+187250
Y+186875
Y+186500
X+019000
Y+186875
Y+187250
Y+187625
X+019375Y+186500
Y+186875
Y+187250
Y+187625
X+019000Y+188000
X+018625
Y+194625
Y+195375
X+020375Y+196875
Y+197375
X+019875Y+196875
Y+197375
X+019375Y+196875
Y+197375
X+018875Y+196875
Y+197375
X+018375Y+196875
Y+197375
X+020375Y+198375
Y+198875
Y+199375
Y+199875
X+019875Y+198375
Y+198875
Y+199375
Y+199875
X+019375Y+198375
Y+198875
Y+199375
Y+199875
X+018875Y+198375
Y+198875
Y+199375
Y+199875
X+018375Y+198375
Y+198875
Y+199375
Y+199875
X+022875Y+188375
X+021375
X+021750
X+022500
X+022125
X+022375Y+190750
X+022875
X+023375
X+022375Y+191250
X+022875
X+023375
X+021875
X+021375Y+189875
X+021750
X+021375Y+189500
X+021750
X+022125
X+022375Y+193750
Y+194250
X+022875Y+193750
Y+194250
X+023375Y+193750
Y+194250
X+022375Y+192750
X+022875
X+023375
X+022375Y+193250
X+022875
X+023375
X+021875Y+194250
Y+193750
Y+192750
Y+193250
X+021375Y+194250
Y+193750
Y+192750
Y+193250
X+023375Y+195750
Y+196250
X+022875Y+195750
Y+196250
X+022375Y+195750
Y+196250
X+021875Y+195750
Y+196250
X+021375Y+195750
Y+196250
X+026375Y+180500
X+024375Y+190750
Y+191250
Y+193750
Y+194250
Y+192750
Y+193250
Y+195750
Y+196250
X+024875Y+195750
Y+196250
X+025375Y+195750
Y+196250
X+025875Y+195750
Y+196250
X+026375Y+195750
Y+196250
X+028875Y+180500
X+029375
X+028375Y+190500
X+027375Y+195750
Y+196250
X+030375Y+180500
X+031750Y+185000
X+032250
X+034625Y+187125
X+033375
Y+186500
X+034625
Y+189875
X+033750Y+191000
Y+193250
X+042625Y+190000
X+011625Y+192250
Y+194875
X+011125
X+014625Y+197875
X+014125
X+013625
X+013125
X+015625Y+183250
X+016000
X+015625Y+182875
X+016000
X+016375
Y+183250
X+015625Y+197875
X+018625Y+195000
X+020375Y+197875
X+019875
X+019375
X+018875
X+018375
X+022375Y+191750
Y+192250
X+022875Y+191750
Y+192250
X+023375Y+191750
Y+192250
X+021875Y+191750
Y+192250
X+021375Y+191750
Y+192250
Y+189125
Y+188750
X+021750Y+189125
Y+188750
X+022125Y+189125
Y+188750
X+022875
X+022500
Y+189125
X+023375Y+195250
X+022875
X+022375
X+021875
X+021375
X+021875Y+194750
X+022375
X+022875
X+023375
X+021375
X+026000Y+180250
X+026375Y+180000
X+024625Y+179875
X+024375Y+191750
Y+192250
X+024875Y+194750
X+025375
X+025875
X+026375
X+024375Y+195250
X+024875
X+025375
X+025875
X+026375
X+024375Y+194750
X+028500Y+180250
X+027375Y+194750
Y+195250
X+032500Y+189000
X+033375Y+185875
X+034625
X+042625Y+189000
X+012125Y+193250
X+011875Y+193500
X+012125Y+197375
Y+196875
Y+196375
Y+195875
Y+195375
X+021125Y+182000
X+015250Y+183625
X+021000Y+183500
X+018250Y+186500
Y+186875
Y+187250
Y+187625
Y+188000
X+023875Y+190750
Y+191250
Y+193750
Y+194250
Y+192750
Y+193250
X+018250Y+194625
X+023875Y+195750
Y+196250
X+018250Y+195375
X+017875Y+196875
Y+197375
X+015125Y+196875
Y+197375
Y+196375
X+017875Y+198375
Y+198875
Y+199375
Y+199875
X+015125Y+198375
Y+198875
Y+199375
Y+199875
X+029875Y+180500
X+033125Y+185000
Y+188125
X+026875Y+195750
Y+196250
X+041750Y+190000
X+012125Y+194875
X+015250Y+183250
X+023875Y+191750
Y+192250
X+015250Y+182875
X+021000Y+183000
X+023875Y+195250
Y+194750
X+018250Y+195000
X+017875Y+197875
X+015125
X+026875Y+180250
Y+194750
Y+195250
X+041750Y+189000
T02
X+029800Y+199025
X+027200
X+029800Y+197225
X+027200
X+034175Y+199025
X+031575
X+034175Y+197225
X+031575
X+042650Y+191950
Y+194550
X+040850Y+191950
Y+194550
X+038550Y+199025
X+035950
X+038550Y+197225
X+035950
T03
X+034125Y+195500
X+030125Y+185500
Y+184500
Y+186500
Y+188500
Y+187500
Y+189500
Y+191500
Y+190500
X+036125Y+189500
Y+191500
Y+190500
X+030125Y+192500
Y+194500
Y+193500
X+036125Y+192500
Y+193500
Y+194500
X+030125Y+195500
X+033125
X+036125
T04
X+036875Y+180625
Y+182375
X+027500Y+186375
Y+188375
Y+189375
Y+187375
T05
X+010875Y+186875
Y+191125
X+027875Y+182250
Y+184375
X+042250Y+186750
Y+182500
X+017500Y+186641
Y+188609
X+025875Y+183484
Y+181516
T06
X+016750Y+193500
Y+199500
X+025625Y+193500
Y+199500
X+016750Y+191500
Y+197500
X+025625Y+191500
Y+197500
T07
X+014625Y+188000
Y+190000
X+038500Y+183625
Y+185625
T08
X+011220Y+199409
X+041929
X+011220Y+180512
X+041929
T00
M30
