M48
;FILE_FORMAT=2:4
INCH
;TYPE=PLATED
T01C0.018
T02C0.039
T03C0.043
T04C0.047
T05C0.067
T06C0.079
T07C0.136
%
T01
X+036500Y+155000
X+040750Y+152625
X+041250
X+040250
X+040750Y+152125
X+041250
X+040250
Y+154125
X+040750
X+041250
X+040750Y+153625
X+041250
X+040250
X+041125Y+155125
X+040625
X+040125
X+041125Y+155625
X+040125
X+040625
X+041125Y+157125
Y+156625
X+040625
X+040125Y+161125
X+040500
X+040875
X+042750Y+152625
X+043250
X+042750Y+152125
X+043250
X+043750
X+044250Y+152625
X+043750
X+043250Y+154125
X+043750
X+044250
X+043250Y+153625
X+043750
X+044250
X+043250Y+155125
X+043750
X+044250
X+043250Y+154625
X+043750
X+044250
X+043250Y+155625
X+043750
X+044250
X+042750
Y+154125
Y+153625
Y+155125
Y+154625
X+044250Y+153625
X+042692Y+162568
X+045750Y+154125
X+046250
X+046750
X+045750Y+153625
X+046250
X+046750
X+045750Y+155125
X+046250
X+046750
X+045750Y+154625
X+046250
X+046750
X+045750Y+155625
X+046250
X+046750
X+047250Y+154125
Y+153625
Y+155125
Y+154625
Y+155625
X+048625Y+154750
X+050125Y+153875
X+051750Y+155375
Y+154625
Y+153875
X+051500Y+156375
X+054500Y+149125
X+055625Y+150875
X+056625
X+054625
X+055375Y+157000
X+059500Y+161250
Y+160500
X+061000Y+158000
X+060500Y+162500
X+040750Y+153125
X+041250
X+040250
X+041125Y+156125
X+040625
X+040125
X+042750Y+153125
X+043250
X+043750
X+044250
X+043750
X+043250Y+156125
X+043750
X+044250
X+042750
X+045750Y+153125
X+046250
X+046750
X+045750Y+156125
X+046250
X+046750
X+047250Y+153125
Y+156125
X+048750Y+158750
X+055750Y+156250
X+056625
X+044750Y+146500
X+041750Y+152625
X+042250
X+041750Y+152125
X+042250
X+041750Y+154125
X+042250
X+044750
X+045250
X+041750Y+153625
X+042250
X+044750
X+045250
X+042250Y+155125
X+044750
X+045250
X+042250Y+154625
X+044750
X+045250
X+042250Y+155625
X+044750
X+045250
X+051000Y+161625
X+041750Y+153125
X+042250
X+044750
X+045250
X+042250Y+156125
X+044750
X+045250
T02
X+046125Y+145625
X+047125
Y+151625
X+046125
X+049125Y+145625
X+050125
X+049125Y+151625
X+050125
X+052125Y+145625
X+053125
X+052125Y+151625
X+053125
X+052125Y+163125
X+053125
X+055125Y+145625
X+056125
X+055125Y+151625
X+056125
X+055125Y+163125
X+056125
X+058125Y+145625
X+059125
X+058125Y+151625
X+059125
X+058125Y+163125
X+063475Y+156925
Y+154325
X+065275Y+156925
Y+154325
X+063475Y+152800
Y+150200
X+065275Y+152800
Y+150200
X+063486Y+161071
Y+158471
X+065286Y+161071
Y+158471
X+048125Y+145625
X+045125
X+048125Y+151625
X+045125
X+057125Y+145625
X+051125
X+054125
X+057125Y+151625
X+054125
X+051125
Y+163125
X+054125
X+057125
X+037575Y+162100
X+040175
X+037575Y+163900
X+040175
T03
X+040156Y+149125
Y+148125
Y+151125
Y+150125
X+053125Y+161000
X+055125
X+056125
X+054125
X+053125Y+159125
X+055125
X+056125
X+054125
T04
X+035406Y+156894
Y+161144
X+045006Y+161502
X+043006
X+037997Y+153601
X+036583Y+155015
T05
X+038781Y+148625
Y+150625
T06
X+039156Y+158019
Y+160019
T07
X+064567Y+162992
Y+146063
X+035827Y+162992
Y+146063
T00
M30
